<svg width="33" height="32" viewBox="0 0 33 32" fill="none" xmlns="http://www.w3.org/2000/svg">
<path d="M14.2998 23.67V17.7086C11.696 17.038 10.472 17.7077 8.38216 18.8511L8.37784 18.8535C6.70391 19.7694 6.20647 22.4461 6.16699 23.67H14.2998Z" fill="#DDE9FD"/>
<path d="M24.2998 23.67V17.7086C21.696 17.038 20.472 17.7077 18.3822 18.8511L18.3778 18.8535C16.7039 19.7694 16.2065 22.4461 16.167 23.67H24.2998Z" fill="#DDE9FD"/>
<path d="M20.167 23.67V17.7086C22.7708 17.038 23.9948 17.7077 26.0846 18.8511L26.089 18.8535C27.7629 19.7694 28.2603 22.4461 28.2998 23.67H20.167Z" fill="#DDE9FD"/>
<path d="M10.167 23.67V17.7086C12.7708 17.038 13.9948 17.7077 16.0846 18.8511L16.089 18.8535C17.7629 19.7694 18.2603 22.4461 18.2998 23.67H10.167Z" fill="#DDE9FD"/>
<path fill-rule="evenodd" clip-rule="evenodd" d="M12.2998 15C14.5089 15 16.2998 13.2091 16.2998 11C16.2998 8.79086 14.5089 7 12.2998 7C10.0907 7 8.2998 8.79086 8.2998 11C8.2998 13.2091 10.0907 15 12.2998 15Z" fill="#FFE3C9"/>
<path fill-rule="evenodd" clip-rule="evenodd" d="M22.2998 16C24.5089 16 26.2998 14.2091 26.2998 12C26.2998 9.79086 24.5089 8 22.2998 8C20.0907 8 18.2998 9.79086 18.2998 12C18.2998 14.2091 20.0907 16 22.2998 16Z" fill="#FFE3C9"/>
<path fill-rule="evenodd" clip-rule="evenodd" d="M7.7998 11.5566C7.7998 9.07136 9.81452 7.05664 12.2998 7.05664C14.7851 7.05664 16.7998 9.07136 16.7998 11.5566C16.7998 14.0419 14.7851 16.0566 12.2998 16.0566C9.81452 16.0566 7.7998 14.0419 7.7998 11.5566ZM12.2998 8.05664C10.3668 8.05664 8.7998 9.62364 8.7998 11.5566C8.7998 13.4896 10.3668 15.0566 12.2998 15.0566C14.2328 15.0566 15.7998 13.4896 15.7998 11.5566C15.7998 9.62364 14.2328 8.05664 12.2998 8.05664Z" fill="#333333"/>
<path fill-rule="evenodd" clip-rule="evenodd" d="M8.54623 18.2481C10.2692 17.0293 12.4767 16.723 14.4665 17.4265C14.7268 17.5185 14.8633 17.8042 14.7712 18.0645C14.6792 18.3249 14.3935 18.4613 14.1331 18.3693C12.4495 17.774 10.5816 18.0332 9.1237 19.0645C7.66577 20.0957 6.79927 21.7706 6.7998 23.5564C6.79989 23.8325 6.5761 24.0565 6.29996 24.0565C6.02381 24.0566 5.79989 23.8328 5.7998 23.5567C5.79917 21.4462 6.82322 19.4668 8.54623 18.2481Z" fill="#333333"/>
<path fill-rule="evenodd" clip-rule="evenodd" d="M8.54623 18.2481C10.2692 17.0293 12.4767 16.723 14.4665 17.4265C14.7268 17.5185 14.8633 17.8042 14.7712 18.0645C14.6792 18.3249 14.3935 18.4613 14.1331 18.3693C12.4495 17.774 10.5816 18.0332 9.1237 19.0645C7.66577 20.0957 6.79927 21.7706 6.7998 23.5564C6.79989 23.8325 6.5761 24.0565 6.29996 24.0565C6.02381 24.0566 5.79989 23.8328 5.7998 23.5567C5.79917 21.4462 6.82322 19.4668 8.54623 18.2481Z" fill="#333333"/>
<path fill-rule="evenodd" clip-rule="evenodd" d="M10.1333 17.4265C12.123 16.723 14.3305 17.0293 16.0535 18.2481C17.7765 19.4668 18.8006 21.4462 18.7999 23.5567C18.7999 23.8328 18.5759 24.0566 18.2998 24.0565C18.0236 24.0565 17.7999 23.8325 17.7999 23.5564C17.8005 21.7706 16.934 20.0957 15.476 19.0645C14.0181 18.0332 12.1503 17.774 10.4666 18.3693C10.2063 18.4613 9.92058 18.3249 9.82854 18.0645C9.73649 17.8042 9.87292 17.5185 10.1333 17.4265Z" fill="#333333"/>
<path fill-rule="evenodd" clip-rule="evenodd" d="M18.5462 18.2481C20.2692 17.0293 22.4767 16.723 24.4665 17.4265C24.7268 17.5185 24.8633 17.8042 24.7712 18.0645C24.6792 18.3249 24.3935 18.4613 24.1331 18.3693C22.4495 17.774 20.5816 18.0332 19.1237 19.0645C17.6658 20.0957 16.7993 21.7706 16.7998 23.5564C16.7999 23.8325 16.5761 24.0565 16.3 24.0565C16.0238 24.0566 15.7999 23.8328 15.7998 23.5567C15.7992 21.4462 16.8232 19.4668 18.5462 18.2481Z" fill="#333333"/>
<path fill-rule="evenodd" clip-rule="evenodd" d="M20.1333 17.4265C22.123 16.723 24.3305 17.0293 26.0535 18.2481C27.7765 19.4668 28.8006 21.4462 28.7999 23.5567C28.7999 23.8328 28.5759 24.0566 28.2998 24.0565C28.0236 24.0565 27.7999 23.8325 27.7999 23.5564C27.8005 21.7706 26.934 20.0957 25.476 19.0645C24.0181 18.0332 22.1503 17.774 20.4666 18.3693C20.2063 18.4613 19.9206 18.3249 19.8285 18.0645C19.7365 17.8042 19.8729 17.5185 20.1333 17.4265Z" fill="#333333"/>
<path fill-rule="evenodd" clip-rule="evenodd" d="M17.7998 11.5566C17.7998 9.07136 19.8145 7.05664 22.2998 7.05664C24.7851 7.05664 26.7998 9.07136 26.7998 11.5566C26.7998 14.0419 24.7851 16.0566 22.2998 16.0566C19.8145 16.0566 17.7998 14.0419 17.7998 11.5566ZM22.2998 8.05664C20.3668 8.05664 18.7998 9.62364 18.7998 11.5566C18.7998 13.4896 20.3668 15.0566 22.2998 15.0566C24.2328 15.0566 25.7998 13.4896 25.7998 11.5566C25.7998 9.62364 24.2328 8.05664 22.2998 8.05664Z" fill="#333333"/>
</svg>
