<svg xmlns="http://www.w3.org/2000/svg" width="24" height="24" viewBox="0 0 24 24">
  <path fill="#16737f" d="M12,0 C17.5227865,0 22,4.46557757 22,9.97428878 C22,13.1385953 20.3154433,15.6290177 18.2185493,17.785974 C17.1311831,18.904486 15.0725929,20.975828 12.0427785,24 C9.02923655,20.9554697 6.95608838,18.8841277 5.82333402,17.785974 C3.66092694,15.6896188 2,13.1562764 2,9.97428878 C2,4.46557757 6.47708871,0 12,0 Z M17.4580893,6.52463279 C15.932647,5.10588473 13.5289577,5.10279992 12.0000336,6.48613962 C10.4709703,5.10279992 8.06728099,5.10588473 6.54183869,6.52463279 C4.96932257,7.9872389 4.92573055,10.4006396 6.44448781,11.915017 L6.44448781,11.915017 L12.0000336,17.4545455 L17.5555794,11.915017 C19.0743367,10.4006396 19.0306054,7.9872389 17.4580893,6.52463279 Z"/>
</svg>