<svg width="33" height="32" viewBox="0 0 33 32" fill="none" xmlns="http://www.w3.org/2000/svg">
<path d="M8.2998 12C8.57595 12 8.7998 12.2239 8.7998 12.5V13.5C8.7998 13.7761 8.57595 14 8.2998 14C8.02366 14 7.7998 13.7761 7.7998 13.5V12.5C7.7998 12.2239 8.02366 12 8.2998 12ZM5.00691 11.2929C5.20217 11.4882 5.20217 11.8047 5.00691 12L4.2998 12.7071C4.10454 12.9024 3.78796 12.9024 3.5927 12.7071C3.39744 12.5118 3.39744 12.1953 3.5927 12L4.2998 11.2929C4.49507 11.0976 4.81165 11.0976 5.00691 11.2929ZM12.2998 11.2929L13.0069 12C13.2022 12.1953 13.2022 12.5118 13.0069 12.7071C12.8116 12.9024 12.4951 12.9024 12.2998 12.7071L11.5927 12C11.3974 11.8047 11.3974 11.4882 11.5927 11.2929C11.788 11.0976 12.1045 11.0976 12.2998 11.2929ZM8.2998 5C9.95666 5 11.2998 6.34315 11.2998 8C11.2998 9.65685 9.95666 11 8.2998 11C6.64295 11 5.2998 9.65685 5.2998 8C5.2998 6.34315 6.64295 5 8.2998 5ZM3.7998 7.5C4.07595 7.5 4.2998 7.72386 4.2998 8C4.2998 8.27614 4.07595 8.5 3.7998 8.5H2.7998C2.52366 8.5 2.2998 8.27614 2.2998 8C2.2998 7.72386 2.52366 7.5 2.7998 7.5H3.7998ZM13.7998 7.5C14.0759 7.5 14.2998 7.72386 14.2998 8C14.2998 8.27614 14.0759 8.5 13.7998 8.5H12.7998C12.5237 8.5 12.2998 8.27614 12.2998 8C12.2998 7.72386 12.5237 7.5 12.7998 7.5H13.7998ZM13.0069 3.29289C13.2022 3.48816 13.2022 3.80474 13.0069 4L12.2998 4.70711C12.1045 4.90237 11.788 4.90237 11.5927 4.70711C11.3974 4.51184 11.3974 4.19526 11.5927 4L12.2998 3.29289C12.4951 3.09763 12.8116 3.09763 13.0069 3.29289ZM4.2998 3.29289L5.00691 4C5.20217 4.19526 5.20217 4.51184 5.00691 4.70711C4.81165 4.90237 4.49507 4.90237 4.2998 4.70711L3.5927 4C3.39744 3.80474 3.39744 3.48816 3.5927 3.29289C3.78796 3.09763 4.10454 3.09763 4.2998 3.29289ZM8.2998 2C8.57595 2 8.7998 2.22386 8.7998 2.5V3.5C8.7998 3.77614 8.57595 4 8.2998 4C8.02366 4 7.7998 3.77614 7.7998 3.5V2.5C7.7998 2.22386 8.02366 2 8.2998 2Z" fill="#333333"/>
<path d="M8.2998 6C7.19524 6 6.2998 6.89543 6.2998 8C6.2998 9.10457 7.19524 10 8.2998 10C9.40437 10 10.2998 9.10457 10.2998 8C10.2998 6.89543 9.40437 6 8.2998 6Z" fill="#FFEE00"/>
<path fill-rule="evenodd" clip-rule="evenodd" d="M30.7998 20C29.7266 21.2221 27.6091 22 25.7998 22C23.9905 22 22.373 21.2221 21.2998 20C20.2267 21.2221 18.6091 22 16.7998 22C14.9905 22 13.373 21.2221 12.2998 20C11.2267 21.2221 9.60915 22 7.7999 22C5.99046 22 3.87299 21.2221 2.7998 20V30H30.7998V20Z" fill="#75A8F9"/>
<path d="M30.6297 24.6243C30.8372 24.8065 30.8577 25.1224 30.6755 25.3299C29.4758 26.6961 27.7054 27.5 25.7998 27.5C24.1857 27.5 22.6685 26.9232 21.5131 25.9164L21.299 25.7226C20.1205 26.8488 18.5149 27.5 16.7998 27.5C15.0848 27.5 13.4793 26.8488 12.3007 25.7227C11.1205 26.8488 9.5149 27.5 7.79991 27.5C5.89423 27.5 4.12383 26.6961 2.92411 25.3299C2.7419 25.1224 2.76239 24.8065 2.96988 24.6243C3.17738 24.4421 3.49329 24.4626 3.67551 24.6701C4.68564 25.8203 6.1824 26.5 7.79991 26.5C9.41728 26.5 10.9141 25.8203 11.9241 24.6701C12.1232 24.4433 12.4764 24.4433 12.6755 24.6701C13.6856 25.8203 15.1824 26.5 16.7998 26.5C18.4173 26.5 19.9141 25.8203 20.9241 24.6701C21.1232 24.4433 21.4764 24.4433 21.6755 24.6701C22.6856 25.8203 24.1824 26.5 25.7998 26.5C27.4172 26.5 28.914 25.8203 29.9241 24.6701C30.1063 24.4626 30.4222 24.4421 30.6297 24.6243ZM30.6297 19.6243C30.8372 19.8065 30.8577 20.1224 30.6755 20.3299C29.4758 21.6961 27.7054 22.5 25.7998 22.5C24.1857 22.5 22.6685 21.9232 21.5131 20.9164L21.299 20.7226C20.1205 21.8488 18.5149 22.5 16.7998 22.5C15.0848 22.5 13.4793 21.8488 12.3007 20.7227C11.1205 21.8488 9.5149 22.5 7.79991 22.5C5.89423 22.5 4.12383 21.6961 2.92411 20.3299C2.7419 20.1224 2.76239 19.8065 2.96988 19.6243C3.17738 19.4421 3.49329 19.4626 3.67551 19.6701C4.68564 20.8203 6.1824 21.5 7.79991 21.5C9.41728 21.5 10.9141 20.8203 11.9241 19.6701C12.1232 19.4433 12.4764 19.4433 12.6755 19.6701C13.6856 20.8203 15.1824 21.5 16.7998 21.5C18.4173 21.5 19.9141 20.8203 20.9241 19.6701C21.1232 19.4433 21.4764 19.4433 21.6755 19.6701C22.6856 20.8203 24.1824 21.5 25.7998 21.5C27.4172 21.5 28.914 20.8203 29.9241 19.6701C30.1063 19.4626 30.4222 19.4421 30.6297 19.6243ZM21.7998 2.5C22.076 2.5 22.2998 2.72386 22.2998 3C22.2998 3.24546 22.1229 3.44961 21.8897 3.49194L21.7998 3.5H21.2998C19.9743 3.5 18.8898 4.53154 18.8051 5.83562L18.7998 6L18.7998 8H26.7998V6C26.7998 4.13144 28.2641 2.60487 30.1078 2.50518L30.2998 2.5H30.7998C31.076 2.5 31.2998 2.72386 31.2998 3C31.2998 3.24546 31.1229 3.44961 30.8897 3.49194L30.7998 3.5H30.2998C28.9743 3.5 27.8898 4.53154 27.8051 5.83562L27.7998 6V19C27.7998 19.2761 27.576 19.5 27.2998 19.5C27.0543 19.5 26.8502 19.3231 26.8079 19.0899L26.7998 19V15H18.7998L18.7998 19C18.7998 19.2761 18.576 19.5 18.2998 19.5C18.0544 19.5 17.8502 19.3231 17.8079 19.0899L17.7998 19V6C17.7998 4.13144 19.2641 2.60487 21.1078 2.50518L21.2998 2.5H21.7998ZM26.7998 14V9H18.7998V14H26.7998Z" fill="#333333"/>
</svg>
