<svg width="33" height="32" viewBox="0 0 33 32" fill="none" xmlns="http://www.w3.org/2000/svg">
<path d="M25.5458 2L31.8043 8.25844L26.2804 14.502C25.0924 15.69 23.5852 15.7552 21.6513 15.141L21.5448 15.1056L20.0148 16.784L28.8841 24.8655L29.0467 25.0341C30.0899 26.2057 30.0494 28.0023 28.9256 29.1261L28.8875 29.1639L28.6919 29.3365C27.4729 30.3238 25.6802 30.2003 24.6108 29.0258L16.7358 20.383L8.83705 29.0543L8.7441 29.1517C7.61303 30.2828 5.7792 30.2828 4.64812 29.1517C4.6009 29.1037 4.6009 29.1037 4.55518 29.0543L4.43148 28.9094C3.48645 27.7266 3.61038 25.997 4.74549 24.9628L13.5758 16.915L11.6387 14.7898L11.4188 14.8834C9.23572 15.7515 6.85858 14.893 5.04877 12.5624L4.88552 12.3461C2.54573 9.15752 2.08663 6.02773 3.9569 4.15747C5.82751 2.28686 8.95603 2.74577 12.146 5.08521C14.7168 6.97061 15.6343 9.5241 14.5939 11.8293L14.5886 11.8399L16.8668 13.916L18.6903 12.256L18.5848 11.922C18.05 10.1453 18.1163 8.74528 19.1685 7.58815L19.3117 7.43831L25.5458 2Z" fill="black"/>
<path d="M14.241 17.6461L16.068 19.6511L14.442 21.4351L12.364 19.3571L14.241 17.6461ZM11.5495 5.89893C13.9778 7.67986 14.598 9.94291 13.4319 11.8743L13.3209 12.0489L20.5005 18.5907L18.3905 20.7007L11.8491 13.5208C9.87922 14.8352 7.53398 14.2513 5.69908 11.7494C3.60577 8.8967 3.24413 6.29738 4.67047 4.87103C6.09754 3.44397 8.69614 3.80633 11.5495 5.89893ZM25.5 3.3501L26.5608 4.41082L22.6714 8.30015C22.4762 8.49542 22.4762 8.81203 22.6714 9.0073C22.845 9.18088 23.1144 9.20016 23.3093 9.06516L23.3786 9.0073L27.2679 5.11797L28.6822 6.53227L24.7929 10.4216C24.5976 10.6169 24.5976 10.9335 24.7929 11.1287C24.9665 11.3023 25.2359 11.3216 25.4308 11.1866L25.5 11.1287L29.3894 7.23942L30.4501 8.30015L25.5826 13.8042C24.5327 14.8542 22.9527 14.5581 21.6034 14.0842L21.2571 13.9574L19.286 16.1201L17.6 14.5851L19.8428 12.5431L19.7086 12.1804C19.25 10.8875 18.94 9.36992 19.8311 8.32266L19.9607 8.18229L25.5 3.3501Z" fill="white"/>
<path fill-rule="evenodd" clip-rule="evenodd" d="M11.6231 20.0316L13.7671 22.1746L8.04643 28.4539C7.30082 29.1995 6.09194 29.1995 5.34633 28.4539L5.28506 28.3897C4.61228 27.6513 4.62728 26.5286 5.29346 25.8086L5.41051 25.6925L11.6231 20.0316ZM21.2405 19.2676L28.2132 25.6201C28.949 26.356 28.9825 27.5286 28.3129 28.3048L28.1798 28.4452L28.146 28.4764C27.3764 29.1771 26.2036 29.1564 25.4601 28.4518L25.3569 28.3465L19.0675 21.4406L21.2405 19.2676Z" fill="#75A8F9"/>
</svg>
