<svg width="33" height="32" viewBox="0 0 33 32" fill="none" xmlns="http://www.w3.org/2000/svg">
<path d="M14.7998 18.6607L11.4142 9C11.4142 9 8.53859 10.1179 5.92961 13.8554C4.19923 16.3342 3.846 19.9874 3.80433 22.1668C3.78919 22.9587 4.68548 23.3862 5.34818 22.9524C6.25739 22.3572 7.535 21.5768 9.06026 20.7964C12.1909 19.1947 14.7998 18.6607 14.7998 18.6607Z" fill="#E8CC97" stroke="black"/>
<path d="M19.7998 18.6107L23.0863 9C23.0863 9 25.825 10.1179 28.5639 13.8554C30.397 16.3568 30.7579 20.0539 30.7961 22.2258C30.8098 23.0055 29.9363 23.4305 29.2758 23.0159C28.316 22.4134 26.9362 21.6049 25.2774 20.7964C21.9909 19.1947 19.7998 18.6107 19.7998 18.6107Z" fill="#E8CC97" stroke="black"/>
<path d="M9.7998 21L5.7998 14" stroke="black"/>
<path d="M24.7998 21L28.7998 14" stroke="black"/>
<path fill-rule="evenodd" clip-rule="evenodd" d="M17.3851 7C15.1709 7 12.9061 7.46002 10.9687 8.29105L10.7998 8.36618L14.6655 19L14.9822 18.9632C15.5122 18.9081 16.0451 18.8712 16.5804 18.8527L17.3851 18.8388C18.1914 18.8388 18.9932 18.8806 19.788 18.9632L20.1043 19L23.7998 8.29101C22.0239 7.52914 19.9739 7.07922 17.9394 7.00953L17.3851 7Z" fill="#D1A470" stroke="black"/>
</svg>
